<svg width="130" height="130" viewBox="0 0 130 130" fill="none" xmlns="http://www.w3.org/2000/svg">
<g clip-path="url(#clip0_1023_116)">
<rect width="130" height="130" rx="12" fill="#222222"/>
<path d="M63.7425 17.4094C63.7425 17.4094 62.0382 24.058 58.6298 37.3553H65.4467C66.4145 37.3553 67.0457 37.5657 67.3403 37.9865C67.6349 38.4073 67.6349 39.1437 67.3403 40.1957L66.4566 43.541C65.9096 45.4346 64.7945 46.3814 63.1113 46.3814H56.3574L42.6604 100.16C42.1555 102.053 40.872 103 38.8101 103H36.3484C34.9598 103 33.9709 102.6 33.3818 101.801C32.8347 101.001 32.6875 100.012 32.9399 98.8341L46.3214 46.3814H41.2718C40.3881 46.3814 39.799 46.171 39.5044 45.7502C39.2519 45.2873 39.273 44.4668 39.5675 43.2885L40.5775 39.8169C41.0403 38.1758 41.9871 37.3553 43.4179 37.3553H48.6568L53.7695 17.2831C54.2745 15.3895 55.579 14.4427 57.683 14.4427H60.9021C63.2586 14.4427 64.2054 15.4316 63.7425 17.4094ZM79.9345 41.2056C81.7018 39.5645 83.5533 38.3862 85.489 37.6709C87.4668 36.9134 89.3604 36.661 91.1698 36.9134C93.0213 37.1238 94.8308 37.7761 96.5981 38.8702C99.0388 40.343 101.101 42.0472 102.784 43.9829C104.467 45.8765 104.804 47.4124 103.794 48.5906L101.585 51.0523C100.112 52.5251 98.8073 52.7355 97.6712 51.6835C97.5449 51.5573 97.04 51.0523 96.1563 50.1686C95.2726 49.2429 94.5362 48.5065 93.9471 47.9594C92.0956 46.4025 90.4124 45.7502 88.8975 46.0027C85.8257 46.5918 82.5645 49.8951 79.1139 55.9125C75.7054 61.93 73.2227 68.1368 71.6657 74.5329C70.1088 80.9291 69.7301 86.3153 70.5296 90.6916C70.6979 91.7015 71.4974 92.6483 72.9281 93.532C74.4009 94.3736 75.495 94.7313 76.2104 94.605C78.8614 93.1323 81.7649 90.5443 84.9209 86.8413C85.6363 86.0839 86.2675 85.7262 86.8145 85.7683C87.3616 85.7683 88.098 86.0418 89.0237 86.5888L90.9804 87.8512C91.9904 88.4403 92.3691 89.1557 92.1166 89.9973C91.4012 92.3959 89.0868 95.2152 85.1734 98.4554C81.26 101.653 78.4406 103.484 76.7153 103.947C74.9901 104.41 72.4021 103.757 68.9516 101.99C65.501 100.223 63.355 98.4974 62.5134 96.8142C60.746 92.8167 60.241 87.8723 60.9985 81.9811C61.798 76.0478 63.1656 70.3249 65.1013 64.8124C67.037 59.3 68.9306 55.1972 70.7821 52.5041C72.6336 49.7689 74.1905 47.6228 75.4529 46.0658C76.7153 44.4668 78.2092 42.8467 79.9345 41.2056Z" fill="white"/>
</g>
<defs>
<clipPath id="clip0_1023_116">
<rect width="130" height="130" rx="12" fill="white"/>
</clipPath>
</defs>
</svg>
